<svg xmlns="http://www.w3.org/2000/svg" viewBox="0 0 157.67 82.53"><defs><style>.cls-1{fill:#ffca00;}.cls-2{fill:#5e04d5;}</style></defs><title>logo-text_1</title><g id="Слой_2" data-name="Слой 2"><g id="Слой_1-2" data-name="Слой 1"><circle class="cls-1" cx="125.67" cy="43.19" r="18"/><path class="cls-2" d="M0,60.08V5H28.55v5.69H6.13V27.09H27.89v5.69H6.13V54.39H28.55v5.69Z"/><path class="cls-2" d="M40.15,25.77,50.37,48.83,60.6,25.77h6.56L50.37,62.34,33.51,25.77Z"/><path class="cls-2" d="M102.64,44.18H75.69A11.92,11.92,0,0,0,77.15,50a10.78,10.78,0,0,0,4,4.15,11.1,11.1,0,0,0,5.78,1.52q6.52,0,10.44-7.06l5,2.85a18.18,18.18,0,0,1-6.55,7.12A17.44,17.44,0,0,1,86.49,61a16.57,16.57,0,0,1-8.81-2.33,15.75,15.75,0,0,1-5.9-6.38,19.3,19.3,0,0,1-2.08-8.95,22.06,22.06,0,0,1,2-9.35,15.69,15.69,0,0,1,5.74-6.71,16,16,0,0,1,9-2.48,15.29,15.29,0,0,1,8.8,2.51,15.6,15.6,0,0,1,5.59,6.9A24.86,24.86,0,0,1,102.64,44.18ZM76,39.21h20.5a11,11,0,0,0-1.83-4.51,10.48,10.48,0,0,0-3.59-3.28,9.45,9.45,0,0,0-4.65-1.19,10.22,10.22,0,0,0-6.83,2.63A10.08,10.08,0,0,0,76,39.21Z"/><path class="cls-2" d="M136.15,28.25V36H136q-4.56-5.76-10.66-5.76A11.52,11.52,0,0,0,119.12,32a12.1,12.1,0,0,0-4.33,4.64,13.18,13.18,0,0,0-1.56,6.32,13.82,13.82,0,0,0,1.47,6.32,11.64,11.64,0,0,0,4.19,4.65A11.18,11.18,0,0,0,125,55.62q6.65,0,11.17-5.92h.14v7.82A19.11,19.11,0,0,1,125.49,61a18.58,18.58,0,0,1-9.29-2.36,17.19,17.19,0,0,1-6.58-6.51,18.19,18.19,0,0,1-2.39-9.23,17.55,17.55,0,0,1,2.47-9.14,18,18,0,0,1,6.69-6.55,18.26,18.26,0,0,1,9.16-2.4A17.77,17.77,0,0,1,136.15,28.25Z"/><path class="cls-2" d="M151.54,31.17V60.08H145.7V31.17h-3.58v-5.4h3.58V13.44h5.85V25.77h6.13v5.4Z"/><rect class="cls-2" x="129.24" y="8.89" width="2.31" height="18.82" transform="translate(257.77 51.69) rotate(-173.29)"/><rect class="cls-2" x="115.33" y="54.47" width="2.31" height="18.82" transform="translate(201.85 165.69) rotate(-158.72)"/><rect class="cls-2" x="107.33" y="16.6" width="2.13" height="17.38" transform="translate(7.17 71.58) rotate(-37.71)"/><circle class="cls-2" cx="131.75" cy="5.59" r="5.59"/><circle class="cls-2" cx="100.52" cy="15.12" r="9.93"/><circle class="cls-2" cx="112.53" cy="74.06" r="8.47"/></g></g></svg>