<svg xmlns="http://www.w3.org/2000/svg" viewBox="0 0 373.66 296.36"><defs><style>.cls-1{fill:#5e04d5;}.cls-2{fill:#ffca00;}</style></defs><title>logo_evect</title><g id="Слой_2" data-name="Слой 2"><g id="color"><polygon class="cls-1" points="101.76 96.9 90.02 110.44 36.13 55.81 47.88 42.26 101.76 96.9"/><polygon class="cls-1" points="245.92 114.94 257.26 128.05 314.61 70.01 303.28 56.9 245.92 114.94"/><ellipse class="cls-1" cx="41.94" cy="46.42" rx="34.46" ry="34.87"/><circle class="cls-1" cx="331.11" cy="42.55" r="42.55"/><polygon class="cls-1" points="94.69 244 89.77 231.59 17.62 265.22 22.54 277.64 94.69 244"/><circle class="cls-1" cx="25.44" cy="269.51" r="25.44" transform="translate(-214.21 143.6) rotate(-56.89)"/><polygon class="cls-1" points="259.25 200.99 255.61 211.88 329.39 241.13 333.03 230.23 259.25 200.99"/><path class="cls-1" d="M338.51,256.2c-11.07,5.77-24.38.75-29.72-11.2s-.7-26.33,10.37-32.1,24.38-.75,29.72,11.2S349.58,250.43,338.51,256.2Z"/><ellipse class="cls-1" cx="171.57" cy="182.03" rx="110.43" ry="114.34"/><circle class="cls-2" cx="171.57" cy="182.03" r="52.74"/></g></g></svg>